<?xml version="1.0" encoding="utf-8"?>
<!-- Generator: Adobe Illustrator 16.0.0, SVG Export Plug-In . SVG Version: 6.00 Build 0)  -->
<!DOCTYPE svg PUBLIC "-//W3C//DTD SVG 1.1//EN" "http://www.w3.org/Graphics/SVG/1.1/DTD/svg11.dtd">
<svg version="1.1" id="Layer_1" xmlns="http://www.w3.org/2000/svg" xmlns:xlink="http://www.w3.org/1999/xlink" x="0px" y="0px"
	 width="61.5px" height="63.8px" viewBox="0 0 61.5 63.8" style="enable-background:new 0 0 61.5 63.8;" xml:space="preserve">
<style type="text/css">
<![CDATA[
	.st0{fill:#82BB41;}
	.st1{fill:#EA2C2A;}
	.st2{fill:#26AEE5;}
	.st3{fill:#F8BA38;}
	.st4{fill:#9365AA;}
	.st5{fill:#020202;}
]]>
</style>
<g id="Layer_1_1_">
	<path class="st5" d="M52.9,20.5L52.9,20.5V1.7c0-0.7-0.4-1.3-0.9-1.5c-0.5-0.4-1.3-0.4-1.8,0L34,9.6l0,0c-0.9,0.5-1.1,1.6-0.7,2.4
		l5.5,9.5c0.4,0.5,0.9,0.9,1.5,0.9h10.9C52.2,22.3,52.9,21.4,52.9,20.5z"/>
	<path class="st4" d="M37.2,35.6l16.2-9.3l0,0c0.9-0.5,2-0.2,2.4,0.7l5.5,9.5c0.4,0.5,0.4,1.3,0,1.8l-5.5,9.5
		c-0.5,0.9-1.6,1.1-2.4,0.7l0,0l-16.2-9.3c-0.5-0.4-0.9-0.9-0.9-1.5C36.3,36.5,36.7,36,37.2,35.6z"/>
	<path class="st2" d="M51.4,51.3L51.4,51.3l-16.2-9.5c-0.5-0.4-1.3-0.4-1.8,0c-0.5,0.4-0.9,0.9-0.9,1.5V62l0,0
		c0,0.9,0.7,1.8,1.8,1.8h10.7c0.7,0,1.3-0.4,1.6-0.9l5.5-9.5C52.7,52.9,52.3,51.8,51.4,51.3z"/>
	<path class="st0" d="M9.9,51.3L9.9,51.3l16.2-9.5c0.5-0.4,1.3-0.4,1.8,0c0.5,0.4,0.9,0.9,0.9,1.5V62l0,0c0,0.9-0.7,1.8-1.8,1.8
		H16.1c-0.7,0-1.3-0.4-1.5-0.9l-5.5-9.5C8.8,52.9,9,51.8,9.9,51.3z"/>
	<path class="st1" d="M9.9,22.9L9.9,22.9l16.2,9.3c0.5,0.4,1.3,0.4,1.8,0c0.5-0.4,0.9-0.9,0.9-1.5V11.9l0,0c0-0.9-0.7-1.8-1.8-1.8
		H16.1c-0.7,0-1.3,0.4-1.5,0.9l-5.5,9.5C8.8,21.2,9,22.3,9.9,22.9z"/>
	<path class="st3" d="M24.3,35.6L8.1,26.3l0,0c-0.9-0.5-2-0.2-2.4,0.7l-5.5,9.5c-0.4,0.5-0.4,1.3,0,1.8l5.5,9.5
		c0.5,0.9,1.6,1.1,2.4,0.7l0,0l16.2-9.3c0.5-0.4,0.9-0.9,0.9-1.5C25,36.5,24.9,36,24.3,35.6z"/>
</g>
</svg>
